<svg width="660" height="280" viewBox="0 0 660 280" fill="none" xmlns="http://www.w3.org/2000/svg">
<g clip-path="url(#clip0_25_844)">
<path fill-rule="evenodd" clip-rule="evenodd" d="M201.463 193.578H173.043V1.48145H201.463V193.578ZM128.414 193.578L112.997 133.92C109.567 120.646 105.76 104.581 94.4528 95.6818C92.7943 94.3619 90.9096 93.1552 88.8742 92.0239C86.8764 90.9303 84.8787 90.0252 82.881 89.3087C80.7701 88.5545 78.5462 87.9889 76.247 87.6118C74.0984 87.2347 71.7992 87.0461 69.3114 87.0461C58.0788 87.0461 47.864 91.6091 40.5138 99.0003C33.1259 106.392 28.565 116.573 28.565 127.811C28.565 139.049 33.1259 149.268 40.5138 156.622C47.9017 164.013 58.0788 168.576 69.3114 168.576C75.4554 168.576 81.2602 167.218 86.4241 164.842C90.5327 162.919 94.302 160.355 97.5436 157.225L105.157 187.054C102.971 188.374 100.672 189.618 98.3352 190.712C89.4773 194.822 79.6017 197.122 69.2737 197.122C50.1633 197.122 32.8244 189.354 20.3102 176.834C7.79606 164.277 0.03125 146.93 0.03125 127.811C0.03125 108.692 7.79606 91.3451 20.3102 78.8253C32.8244 66.3055 50.1633 58.5371 69.2737 58.5371C73.1184 58.5371 77.0008 58.8765 80.8832 59.5553C84.7279 60.1964 88.5349 61.2146 92.1912 62.4967C95.8474 63.7789 99.3152 65.325 102.519 67.0974C105.723 68.8698 108.889 70.9438 111.904 73.3196C121.29 80.6731 127.358 89.7613 131.769 99.6036C135.764 108.579 138.176 117.78 140.513 126.83L157.777 193.615H128.414V193.578ZM588.799 98.2461C588.799 102.281 590.91 105.562 595.131 108.126C610.963 117.667 630.187 116.083 645.792 128.188C655.591 135.768 662.038 147.232 659.362 162.354C657.703 171.743 652.651 180.568 644.924 186.224C635.086 193.427 622.911 197.009 608.324 197.009C595.32 197.009 584.201 194.294 574.891 188.826C565.581 183.396 558.833 175.816 554.612 166.162L579.112 151.946C583.484 164.578 593.247 170.914 608.324 170.914C617.257 170.914 623.477 169.141 627.095 165.634C631.845 160.996 632.071 153.416 627.208 148.702C626.454 147.986 625.55 147.269 624.532 146.553C620.348 143.725 614.091 141.349 605.724 139.275C591.362 135.73 571.309 129.546 563.733 115.819C555.44 100.81 560.341 80.1828 573.609 69.4731C582.919 62.0819 594.416 58.424 608.099 58.424C618.992 58.424 628.679 60.8375 637.198 65.6644C645.716 70.4913 652.237 77.2037 656.797 85.8017L632.826 99.2265C628.453 89.2333 620.198 84.2178 608.06 84.2178C602.444 84.2178 597.845 85.4623 594.227 87.9135C590.608 90.4023 588.799 93.834 588.799 98.2461ZM533.542 36.8537C530.036 40.3608 525.815 42.1331 520.914 42.1331C516.013 42.1331 511.716 40.3608 508.022 36.8537C504.517 33.1581 502.745 28.8591 502.745 23.9568C502.745 19.0544 504.517 14.8309 508.022 11.3238C511.529 7.62822 515.826 5.78042 520.914 5.78042C526.003 5.78042 530.299 7.62822 533.805 11.3238C537.31 14.8309 539.081 19.0544 539.081 23.9568C539.044 28.8591 537.198 33.1958 533.542 36.8537ZM535.125 193.578H506.703V61.8933H535.125V193.578ZM442.021 126.152L491.249 193.578H458.343L425.701 148.552L392.794 193.578H359.624L409.115 125.888L362.263 61.8933H395.169L425.436 103.488L455.704 61.8933H488.874L442.021 126.152ZM359.134 139.991C359.85 135.617 360.19 131.657 360.19 128.15C360.19 108.843 353.97 92.401 341.494 78.9007C329.017 65.3627 313.224 58.6125 294.113 58.6125C273.57 58.6125 256.91 65.2873 244.094 78.6367C231.09 91.9862 224.607 108.39 224.607 127.886C224.607 147.911 231.203 164.503 244.358 177.664C257.702 190.674 275.003 197.16 296.224 197.16C312.922 197.16 326.906 193.087 338.177 184.98L330.451 154.774C322.723 165.672 311.414 171.102 296.488 171.102C285.444 171.102 276.172 168.387 268.708 162.919C261.245 157.489 256.458 149.834 254.347 139.991H359.134ZM254.083 116.8C256.005 106.806 260.492 98.8872 267.503 93.0798C274.513 87.2724 283.296 84.4064 293.849 84.4064C303.499 84.4064 311.716 87.2347 318.464 92.8158C325.211 98.4346 329.583 106.429 331.505 116.8H254.083Z" fill="white"/>
</g>
<path d="M177.528 245.6C177.528 242.833 178.094 240.383 179.228 238.25C180.394 236.117 181.961 234.467 183.928 233.3C185.928 232.1 188.128 231.5 190.528 231.5C192.694 231.5 194.578 231.933 196.178 232.8C197.811 233.633 199.111 234.683 200.078 235.95V231.95H205.828V259.5H200.078V255.4C199.111 256.7 197.794 257.783 196.128 258.65C194.461 259.517 192.561 259.95 190.428 259.95C188.061 259.95 185.894 259.35 183.928 258.15C181.961 256.917 180.394 255.217 179.228 253.05C178.094 250.85 177.528 248.367 177.528 245.6ZM200.078 245.7C200.078 243.8 199.678 242.15 198.878 240.75C198.111 239.35 197.094 238.283 195.828 237.55C194.561 236.817 193.194 236.45 191.728 236.45C190.261 236.45 188.894 236.817 187.628 237.55C186.361 238.25 185.328 239.3 184.528 240.7C183.761 242.067 183.378 243.7 183.378 245.6C183.378 247.5 183.761 249.167 184.528 250.6C185.328 252.033 186.361 253.133 187.628 253.9C188.928 254.633 190.294 255 191.728 255C193.194 255 194.561 254.633 195.828 253.9C197.094 253.167 198.111 252.1 198.878 250.7C199.678 249.267 200.078 247.6 200.078 245.7ZM232.003 236C232.969 234.733 234.286 233.667 235.953 232.8C237.619 231.933 239.503 231.5 241.603 231.5C244.003 231.5 246.186 232.1 248.153 233.3C250.153 234.467 251.719 236.117 252.853 238.25C253.986 240.383 254.553 242.833 254.553 245.6C254.553 248.367 253.986 250.85 252.853 253.05C251.719 255.217 250.153 256.917 248.153 258.15C246.186 259.35 244.003 259.95 241.603 259.95C239.503 259.95 237.636 259.533 236.003 258.7C234.369 257.833 233.036 256.767 232.003 255.5V272.6H226.303V231.95H232.003V236ZM248.753 245.6C248.753 243.7 248.353 242.067 247.553 240.7C246.786 239.3 245.753 238.25 244.453 237.55C243.186 236.817 241.819 236.45 240.353 236.45C238.919 236.45 237.553 236.817 236.253 237.55C234.986 238.283 233.953 239.35 233.153 240.75C232.386 242.15 232.003 243.8 232.003 245.7C232.003 247.6 232.386 249.267 233.153 250.7C233.953 252.1 234.986 253.167 236.253 253.9C237.553 254.633 238.919 255 240.353 255C241.819 255 243.186 254.633 244.453 253.9C245.753 253.133 246.786 252.033 247.553 250.6C248.353 249.167 248.753 247.5 248.753 245.6ZM258.289 245.6C258.289 242.833 258.856 240.383 259.989 238.25C261.156 236.117 262.723 234.467 264.689 233.3C266.689 232.1 268.889 231.5 271.289 231.5C273.456 231.5 275.339 231.933 276.939 232.8C278.573 233.633 279.873 234.683 280.839 235.95V231.95H286.589V259.5H280.839V255.4C279.873 256.7 278.556 257.783 276.889 258.65C275.223 259.517 273.323 259.95 271.189 259.95C268.823 259.95 266.656 259.35 264.689 258.15C262.723 256.917 261.156 255.217 259.989 253.05C258.856 250.85 258.289 248.367 258.289 245.6ZM280.839 245.7C280.839 243.8 280.439 242.15 279.639 240.75C278.873 239.35 277.856 238.283 276.589 237.55C275.323 236.817 273.956 236.45 272.489 236.45C271.023 236.45 269.656 236.817 268.389 237.55C267.123 238.25 266.089 239.3 265.289 240.7C264.523 242.067 264.139 243.7 264.139 245.6C264.139 247.5 264.523 249.167 265.289 250.6C266.089 252.033 267.123 253.133 268.389 253.9C269.689 254.633 271.056 255 272.489 255C273.956 255 275.323 254.633 276.589 253.9C277.856 253.167 278.873 252.1 279.639 250.7C280.439 249.267 280.839 247.6 280.839 245.7ZM299.776 235.95C300.61 234.55 301.71 233.467 303.076 232.7C304.476 231.9 306.126 231.5 308.026 231.5V237.4H306.576C304.343 237.4 302.643 237.967 301.476 239.1C300.343 240.233 299.776 242.2 299.776 245V259.5H294.076V231.95H299.776V235.95ZM319.916 236.6V251.85C319.916 252.883 320.149 253.633 320.616 254.1C321.116 254.533 321.949 254.75 323.116 254.75H326.616V259.5H322.116C319.549 259.5 317.582 258.9 316.216 257.7C314.849 256.5 314.166 254.55 314.166 251.85V236.6H310.916V231.95H314.166V225.1H319.916V231.95H326.616V236.6H319.916ZM356.807 259.95C354.207 259.95 351.857 259.367 349.757 258.2C347.657 257 346.007 255.333 344.807 253.2C343.607 251.033 343.007 248.533 343.007 245.7C343.007 242.9 343.624 240.417 344.857 238.25C346.091 236.083 347.774 234.417 349.907 233.25C352.041 232.083 354.424 231.5 357.057 231.5C359.691 231.5 362.074 232.083 364.207 233.25C366.341 234.417 368.024 236.083 369.257 238.25C370.491 240.417 371.107 242.9 371.107 245.7C371.107 248.5 370.474 250.983 369.207 253.15C367.941 255.317 366.207 257 364.007 258.2C361.841 259.367 359.441 259.95 356.807 259.95ZM356.807 255C358.274 255 359.641 254.65 360.907 253.95C362.207 253.25 363.257 252.2 364.057 250.8C364.857 249.4 365.257 247.7 365.257 245.7C365.257 243.7 364.874 242.017 364.107 240.65C363.341 239.25 362.324 238.2 361.057 237.5C359.791 236.8 358.424 236.45 356.957 236.45C355.491 236.45 354.124 236.8 352.857 237.5C351.624 238.2 350.641 239.25 349.907 240.65C349.174 242.017 348.807 243.7 348.807 245.7C348.807 248.667 349.557 250.967 351.057 252.6C352.591 254.2 354.507 255 356.807 255ZM388.292 236.6H383.192V259.5H377.442V236.6H374.192V231.95H377.442V230C377.442 226.833 378.276 224.533 379.942 223.1C381.642 221.633 384.292 220.9 387.892 220.9V225.65C386.159 225.65 384.942 225.983 384.242 226.65C383.542 227.283 383.192 228.4 383.192 230V231.95H388.292V236.6ZM417.782 259.85C415.449 259.85 413.349 259.45 411.482 258.65C409.615 257.817 408.149 256.65 407.082 255.15C406.015 253.65 405.482 251.9 405.482 249.9H411.582C411.715 251.4 412.299 252.633 413.332 253.6C414.399 254.567 415.882 255.05 417.782 255.05C419.749 255.05 421.282 254.583 422.382 253.65C423.482 252.683 424.032 251.45 424.032 249.95C424.032 248.783 423.682 247.833 422.982 247.1C422.315 246.367 421.465 245.8 420.432 245.4C419.432 245 418.032 244.567 416.232 244.1C413.965 243.5 412.115 242.9 410.682 242.3C409.282 241.667 408.082 240.7 407.082 239.4C406.082 238.1 405.582 236.367 405.582 234.2C405.582 232.2 406.082 230.45 407.082 228.95C408.082 227.45 409.482 226.3 411.282 225.5C413.082 224.7 415.165 224.3 417.532 224.3C420.899 224.3 423.649 225.15 425.782 226.85C427.949 228.517 429.149 230.817 429.382 233.75H423.082C422.982 232.483 422.382 231.4 421.282 230.5C420.182 229.6 418.732 229.15 416.932 229.15C415.299 229.15 413.965 229.567 412.932 230.4C411.899 231.233 411.382 232.433 411.382 234C411.382 235.067 411.699 235.95 412.332 236.65C412.999 237.317 413.832 237.85 414.832 238.25C415.832 238.65 417.199 239.083 418.932 239.55C421.232 240.183 423.099 240.817 424.532 241.45C425.999 242.083 427.232 243.067 428.232 244.4C429.265 245.7 429.782 247.45 429.782 249.65C429.782 251.417 429.299 253.083 428.332 254.65C427.399 256.217 426.015 257.483 424.182 258.45C422.382 259.383 420.249 259.85 417.782 259.85ZM439.408 228.3C438.374 228.3 437.508 227.95 436.808 227.25C436.108 226.55 435.758 225.683 435.758 224.65C435.758 223.617 436.108 222.75 436.808 222.05C437.508 221.35 438.374 221 439.408 221C440.408 221 441.258 221.35 441.958 222.05C442.658 222.75 443.008 223.617 443.008 224.65C443.008 225.683 442.658 226.55 441.958 227.25C441.258 227.95 440.408 228.3 439.408 228.3ZM442.208 231.95V259.5H436.508V231.95H442.208ZM483.041 231.5C485.208 231.5 487.141 231.95 488.841 232.85C490.575 233.75 491.925 235.083 492.891 236.85C493.891 238.617 494.391 240.75 494.391 243.25V259.5H488.741V244.1C488.741 241.633 488.125 239.75 486.891 238.45C485.658 237.117 483.975 236.45 481.841 236.45C479.708 236.45 478.008 237.117 476.741 238.45C475.508 239.75 474.891 241.633 474.891 244.1V259.5H469.241V244.1C469.241 241.633 468.625 239.75 467.391 238.45C466.158 237.117 464.475 236.45 462.341 236.45C460.208 236.45 458.508 237.117 457.241 238.45C456.008 239.75 455.391 241.633 455.391 244.1V259.5H449.691V231.95H455.391V235.1C456.325 233.967 457.508 233.083 458.941 232.45C460.375 231.817 461.908 231.5 463.541 231.5C465.741 231.5 467.708 231.967 469.441 232.9C471.175 233.833 472.508 235.183 473.441 236.95C474.275 235.283 475.575 233.967 477.341 233C479.108 232 481.008 231.5 483.041 231.5ZM507.345 236C508.311 234.733 509.628 233.667 511.295 232.8C512.961 231.933 514.845 231.5 516.945 231.5C519.345 231.5 521.528 232.1 523.495 233.3C525.495 234.467 527.061 236.117 528.195 238.25C529.328 240.383 529.895 242.833 529.895 245.6C529.895 248.367 529.328 250.85 528.195 253.05C527.061 255.217 525.495 256.917 523.495 258.15C521.528 259.35 519.345 259.95 516.945 259.95C514.845 259.95 512.978 259.533 511.345 258.7C509.711 257.833 508.378 256.767 507.345 255.5V272.6H501.645V231.95H507.345V236ZM524.095 245.6C524.095 243.7 523.695 242.067 522.895 240.7C522.128 239.3 521.095 238.25 519.795 237.55C518.528 236.817 517.161 236.45 515.695 236.45C514.261 236.45 512.895 236.817 511.595 237.55C510.328 238.283 509.295 239.35 508.495 240.75C507.728 242.15 507.345 243.8 507.345 245.7C507.345 247.6 507.728 249.267 508.495 250.7C509.295 252.1 510.328 253.167 511.595 253.9C512.895 254.633 514.261 255 515.695 255C517.161 255 518.528 254.633 519.795 253.9C521.095 253.133 522.128 252.033 522.895 250.6C523.695 249.167 524.095 247.5 524.095 245.6ZM541.231 222.5V259.5H535.531V222.5H541.231ZM560.665 259.95C558.065 259.95 555.715 259.367 553.615 258.2C551.515 257 549.865 255.333 548.665 253.2C547.465 251.033 546.865 248.533 546.865 245.7C546.865 242.9 547.482 240.417 548.715 238.25C549.948 236.083 551.632 234.417 553.765 233.25C555.898 232.083 558.282 231.5 560.915 231.5C563.548 231.5 565.932 232.083 568.065 233.25C570.198 234.417 571.882 236.083 573.115 238.25C574.348 240.417 574.965 242.9 574.965 245.7C574.965 248.5 574.332 250.983 573.065 253.15C571.798 255.317 570.065 257 567.865 258.2C565.698 259.367 563.298 259.95 560.665 259.95ZM560.665 255C562.132 255 563.498 254.65 564.765 253.95C566.065 253.25 567.115 252.2 567.915 250.8C568.715 249.4 569.115 247.7 569.115 245.7C569.115 243.7 568.732 242.017 567.965 240.65C567.198 239.25 566.182 238.2 564.915 237.5C563.648 236.8 562.282 236.45 560.815 236.45C559.348 236.45 557.982 236.8 556.715 237.5C555.482 238.2 554.498 239.25 553.765 240.65C553.032 242.017 552.665 243.7 552.665 245.7C552.665 248.667 553.415 250.967 554.915 252.6C556.448 254.2 558.365 255 560.665 255ZM605.4 231.95L588.5 272.45H582.6L588.2 259.05L577.35 231.95H583.7L591.45 252.95L599.5 231.95H605.4ZM634.951 245.05C634.951 246.083 634.885 247.017 634.751 247.85H613.701C613.868 250.05 614.685 251.817 616.151 253.15C617.618 254.483 619.418 255.15 621.551 255.15C624.618 255.15 626.785 253.867 628.051 251.3H634.201C633.368 253.833 631.851 255.917 629.651 257.55C627.485 259.15 624.785 259.95 621.551 259.95C618.918 259.95 616.551 259.367 614.451 258.2C612.385 257 610.751 255.333 609.551 253.2C608.385 251.033 607.801 248.533 607.801 245.7C607.801 242.867 608.368 240.383 609.501 238.25C610.668 236.083 612.285 234.417 614.351 233.25C616.451 232.083 618.851 231.5 621.551 231.5C624.151 231.5 626.468 232.067 628.501 233.2C630.535 234.333 632.118 235.933 633.251 238C634.385 240.033 634.951 242.383 634.951 245.05ZM629.001 243.25C628.968 241.15 628.218 239.467 626.751 238.2C625.285 236.933 623.468 236.3 621.301 236.3C619.335 236.3 617.651 236.933 616.251 238.2C614.851 239.433 614.018 241.117 613.751 243.25H629.001ZM646.261 235.95C647.094 234.55 648.194 233.467 649.561 232.7C650.961 231.9 652.611 231.5 654.511 231.5V237.4H653.061C650.827 237.4 649.127 237.967 647.961 239.1C646.827 240.233 646.261 242.2 646.261 245V259.5H640.561V231.95H646.261V235.95Z" fill="white"/>
<defs>
<clipPath id="clip0_25_844">
<rect width="660" height="197" fill="white" transform="translate(0 0.5)"/>
</clipPath>
</defs>
</svg>
