<?xml version="1.0" encoding="UTF-8" standalone="no"?>
<!-- Created with Inkscape (http://www.inkscape.org/) -->

<svg
   width="1200"
   height="630"
   viewBox="0 0 1200 630"
   version="1.1"
   id="svg5"
   inkscape:version="1.3.2 (1:1.3.2+202311252150+091e20ef0f)"
   sodipodi:docname="random-qs-og.svg"
   inkscape:export-filename="random-qs-og.png"
   inkscape:export-xdpi="96"
   inkscape:export-ydpi="96"
   xmlns:inkscape="http://www.inkscape.org/namespaces/inkscape"
   xmlns:sodipodi="http://sodipodi.sourceforge.net/DTD/sodipodi-0.dtd"
   xmlns="http://www.w3.org/2000/svg"
   xmlns:svg="http://www.w3.org/2000/svg">
  <sodipodi:namedview
     id="namedview7"
     pagecolor="#ffffff"
     bordercolor="#000000"
     borderopacity="0.25"
     inkscape:showpageshadow="2"
     inkscape:pageopacity="0.0"
     inkscape:pagecheckerboard="0"
     inkscape:deskcolor="#d1d1d1"
     inkscape:document-units="px"
     showgrid="false"
     inkscape:zoom="1"
     inkscape:cx="849.5"
     inkscape:cy="570"
     inkscape:window-width="1866"
     inkscape:window-height="1016"
     inkscape:window-x="0"
     inkscape:window-y="0"
     inkscape:window-maximized="1"
     inkscape:current-layer="layer1">
    <inkscape:grid
       id="grid4"
       units="px"
       originx="0"
       originy="0"
       spacingx="1"
       spacingy="1"
       empcolor="#0099e5"
       empopacity="0.30196078"
       color="#0099e5"
       opacity="0.14901961"
       empspacing="5"
       dotted="false"
       gridanglex="30"
       gridanglez="30"
       visible="false" />
  </sodipodi:namedview>
  <defs
     id="defs2">
    <clipPath
       id="clip0_25_844">
      <rect
         width="660"
         height="197"
         fill="#ffffff"
         transform="translate(0,0.5)"
         id="rect2"
         x="0"
         y="0" />
    </clipPath>
  </defs>
  <g
     inkscape:label="Lager 1"
     inkscape:groupmode="layer"
     id="layer1">
    <rect
       style="fill:#18181b;fill-opacity:1;stroke:none;stroke-width:2"
       id="rect1"
       width="1200"
       height="630"
       x="0"
       y="0" />
    <g
       id="g1"
       transform="matrix(0.40029455,0,0,0.40029455,124.51606,413.07997)"
       style="stroke-width:2.49816">
      <path
         d="m -90.247544,252.07302 c 0,0 -3.561891,3.5616 -10.091876,3.5616 -8.14122,0 -15.17964,-5.51198 -15.17964,-14.07712 V 221.88303 H -124 v -8.31079 h 4.24047 c 2.88331,0 4.83426,-1.95066 4.83426,-5.00355 v -8.48036 h 10.26088 v 12.72083 h 10.685959 v 9.07387 h -10.685959 v 18.99617 c 0,2.88303 2.37517,5.08776 5.427477,5.08776 2.544166,0 4.919048,-1.44165 4.919048,-1.44165 l 4.070321,7.54771 m 43.926237,-19.84404 v 22.98171 h -11.364251 v -20.43754 c 0,-4.15569 0.678579,-12.55097 -6.953921,-12.55097 -3.731175,0 -10.939454,1.95008 -10.939454,13.05969 v 19.92911 H -86.943185 V 195 h 10.770171 v 22.21863 h 1.441944 c 2.036025,-2.12052 5.937061,-4.83369 12.211826,-4.83369 10.939455,0 16.197937,8.14122 16.197937,19.84404 m 16.046245,-3.56218 h 19.081249 c -1.272949,-5.00297 -4.749188,-7.03842 -8.989369,-7.03842 -4.664402,0 -8.395288,2.62896 -10.09188,7.03842 z M 4.3850001e-7,237.23253 H -30.953353 c 1.272372,6.44462 6.529701,8.81893 11.109316,8.81893 5.766624,0 8.226004,-3.5616 8.226004,-3.5616 h 10.68509548 c -3.22274548,8.48065 -10.93974348,13.14476 -19.25024448,13.14476 -11.449038,0 -21.454978,-8.73472 -21.454978,-21.96369 0,-13.14477 9.921442,-21.28599 21.115832,-21.28599 10.8549571,0 21.8794864,7.54714 20.52232843850001,24.84759 M 56.389539,252.07302 c 0,0 -3.562179,3.5616 -10.091591,3.5616 -8.140929,0 -15.179924,-5.51198 -15.179924,-14.07712 v -19.67447 h -8.480075 v -8.31079 h 4.239316 c 2.883889,0 4.83484,-1.95066 4.83484,-5.00355 v -8.48036 H 41.97298 v 12.72083 h 10.685384 v 9.07387 H 41.972692 v 18.99617 c 0,2.88303 2.374882,5.08776 5.427478,5.08776 2.544167,0 4.919049,-1.44165 4.919049,-1.44165 l 4.07032,7.54771 m 32.223706,-18.06295 c 0,-7.03899 -3.816826,-11.1941 -9.328514,-11.1941 -5.174273,0 -10.346527,3.73117 -10.346527,11.1941 0,7.46235 5.172254,11.19381 10.346527,11.19381 5.511688,0 9.328514,-4.15539 9.328514,-11.19381 z m 10.600021,-21.20091 v 42.40182 h -8.31079 l -1.18672,-4.07061 h -1.27266 c -2.628953,2.88273 -6.190555,4.49396 -10.770459,4.49396 -10.769305,0 -19.758674,-8.81893 -19.758674,-21.62426 0,-12.80562 8.989369,-21.62513 19.758674,-21.62513 4.410908,0 8.226581,1.52645 10.940608,4.57962 v -4.15569 H 99.213266 M 119.33272,195 v 60.21098 H 108.30819 V 195 h 11.02453 m 17.89222,33.6668 h 19.08125 c -1.27266,-5.00297 -4.74919,-7.03842 -8.98908,-7.03842 -4.66469,0 -8.39558,2.62896 -10.09217,7.03842 z M 167.5,237.23253 h -30.95307 c 1.27238,6.44462 6.52971,8.81893 11.10932,8.81893 5.76662,0 8.22629,-3.5616 8.22629,-3.5616 h 10.68481 c -3.22246,8.48065 -10.93974,13.14476 -19.24996,13.14476 -11.44903,0 -21.45555,-8.73472 -21.45555,-21.96369 0,-13.14477 9.92173,-21.28599 21.11583,-21.28599 10.85496,0 21.88006,7.54714 20.52291,24.84759 m 47.14956,-5.00355 v 22.98171 h -11.27889 v -20.43754 c 0,-1.44195 1.01801,-12.12704 -7.12407,-12.55097 -3.98582,-0.25465 -11.10903,1.95008 -11.10903,13.05969 v 19.92911 h -11.19468 v -42.40182 h 8.65023 l 1.44165,5.17255 h 1.44166 c 1.7808,-2.11995 5.76662,-5.59677 12.8904,-5.59677 10.93946,0 16.28244,8.14122 16.28244,19.84404 m 35.27515,19.84404 c 0,0 -3.56161,3.5616 -10.08986,3.5616 -8.1418,0 -15.18079,-5.51198 -15.18079,-14.07712 v -19.67447 h -8.48037 v -8.31079 h 4.2399 c 2.88331,0 4.83426,-1.95066 4.83426,-5.00355 v -8.48036 h 10.26087 v 12.72083 h 10.68481 v 9.07387 h -10.68481 v 18.99617 c 0,2.88303 2.37575,5.08776 5.42892,5.08776 2.54158,0 4.91703,-1.44165 4.91703,-1.44165 l 4.07004,7.54771 m -352.46887,84.76239 c -11.7876,0 -21.45613,-9.07416 -21.45613,-21.53977 0,-12.63633 10.00709,-21.70991 21.88006,-21.70991 9.667663,0 17.893667,6.02127 20.267684,15.94329 h -11.533247 c -1.78109,-3.47739 -4.917896,-5.68213 -8.989367,-5.68213 -5.93591,0 -10.68481,4.74919 -10.68481,11.36368 0,6.61449 4.7489,11.36396 10.68481,11.36396 3.816536,0 6.784345,-1.95008 8.650221,-5.08804 h 11.617745 c -2.712585,10.09072 -11.447884,15.34892 -20.436966,15.34892 m 57.664219,-21.62513 c 0,-6.61449 -3.901324,-11.78761 -10.346527,-11.78761 -6.444914,0 -10.77017,5.17312 -10.77017,11.78761 0,6.61449 4.325256,11.78818 10.77017,11.78818 6.445203,0 10.346527,-5.17369 10.346527,-11.78818 z m -32.225436,0.0851 c 0,-13.56869 10.515811,-21.70991 21.878909,-21.70991 11.449038,0 21.454978,8.22629 21.454978,21.54005 0,13.48391 -10.345374,21.70992 -21.794123,21.70992 -11.533247,0 -21.539764,-8.22601 -21.539764,-21.54006 m 112.129338,-1.86587 v 22.982 H 23.745362 v -20.43783 c 0,-5.85141 0.594081,-13.22927 -7.208279,-12.55098 -2.034584,0.16986 -7.631923,1.1028 -7.631923,13.05998 v 19.92883 H -2.2895187 v -20.43783 c 0,-5.85141 0.594081,-13.22927 -7.2082796,-12.55098 -2.0345837,0.16986 -7.6322107,1.1028 -7.6322107,13.05998 v 19.92883 h -11.194102 v -42.40182 h 8.650223 l 1.27266,4.57933 h 1.35687 c 1.61094,-2.12053 5.002682,-4.91847 10.2608757,-5.00355 4.7488993,-0.0845 8.8189313,2.12024 11.6180336,5.8517 h 1.2723716 c 2.1193698,-2.62895 6.0206941,-5.8517 12.8895401,-5.9362 11.025106,-0.0854 16.027788,8.14093 16.027788,19.92854 m 38.583257,1.7808 c 0,-7.46235 -5.172831,-11.19381 -10.346527,-11.19381 -5.511977,0 -9.32765,4.15539 -9.32765,11.19381 0,7.03928 3.815962,11.19439 9.32765,11.19439 5.173696,0 10.346527,-3.73146 10.346527,-11.19439 z m 11.025106,0 c 0,12.80591 -8.989658,21.62513 -19.759828,21.62513 -4.409466,0 -8.226004,-1.52673 -10.939455,-4.57933 V 355.8956 H 43.332157 v -61.88594 h 8.311079 l 1.187873,4.07032 h 1.271795 c 2.628088,-2.88331 6.190267,-4.49454 10.769882,-4.49454 10.77017,0 19.75954,8.81951 19.75954,21.62484 m 36.061294,0 c 0,-7.03842 -3.81654,-11.19381 -9.32822,-11.19381 -5.1737,0 -10.34682,3.73146 -10.34682,11.19381 0,7.46293 5.17312,11.19439 10.34682,11.19439 5.51168,0 9.32822,-4.15511 9.32822,-11.19439 z m 10.60002,-21.20062 v 42.40182 h -8.31021 l -1.18701,-4.07061 h -1.27295 c -2.62866,2.88302 -6.19026,4.49454 -10.77017,4.49454 -10.769303,0 -19.758672,-8.81922 -19.758672,-21.62513 0,-12.80533 8.989369,-21.62484 19.758672,-21.62484 4.41091,0 8.22658,1.52702 10.94032,4.57962 v -4.1554 h 10.60002 m 49.71622,19.41982 v 22.982 h -11.2786 v -20.43783 c 0,-1.44137 1.01802,-12.12704 -7.12349,-12.55098 -3.98582,-0.25436 -11.10989,1.95038 -11.10989,13.05998 v 19.92883 h -11.19382 v -42.40182 h 8.64994 l 1.44194,5.17312 h 1.44166 c 1.7808,-2.12052 5.76662,-5.59763 12.89012,-5.59763 10.93974,0 16.28214,8.14122 16.28214,19.84404 m 47.16917,-19.41953 v 38.16163 c 0,11.44846 -5.85112,23.68711 -20.35275,23.68711 -13.56899,0 -20.94626,-8.904 -20.94626,-15.60385 h 10.60002 c 0,0 1.61209,5.68154 10.00738,5.68154 7.12378,0 10.09159,-6.1323 10.09159,-12.06907 v -1.78051 c -1.86558,2.12023 -5.42748,4.7489 -11.78789,4.7489 -11.10874,0 -18.06381,-8.05615 -18.06381,-19.84404 l -0.0842,-22.98171 h 11.0251 v 20.43783 c 0,5.76605 2.03459,12.55068 9.07387,12.55068 3.6461,0 9.66679,-1.7808 9.66679,-13.05969 v -19.92882 h 10.77017"
         fill="#ffffff"
         id="path1"
         style="stroke-width:2.49816" />
      <path
         d="m 263.43255,311.31645 a 2.2081935,2.2081935 0 0 1 -1.84222,-0.9834 l -6.13548,-9.20105 -6.13922,9.20105 a 2.2096354,2.2096354 0 0 1 -3.06413,0.61254 c -1.01282,-0.67743 -1.28679,-2.04958 -0.61283,-3.06529 l 6.65832,-9.9797 h -8.63003 a 2.2087703,2.2087703 0 0 1 -2.20964,-2.20963 2.2081935,2.2081935 0 0 1 2.20964,-2.20935 h 9.15288 c 0.0395,-0.0323 0.0828,-0.0617 0.12603,-0.0917 a 2.138115,2.138115 0 0 1 0.29935,-0.1664 v -8.21447 a 2.2084819,2.2084819 0 0 1 2.20963,-2.20963 2.210789,2.210789 0 0 1 2.20964,2.20963 v 8.21418 c 0.10093,0.0467 0.19841,0.10267 0.2956,0.16641 0.0433,0.03 0.0865,0.0594 0.12631,0.0917 h 9.1526 a 2.2081935,2.2081935 0 0 1 2.20992,2.20935 2.2087703,2.2087703 0 0 1 -2.20992,2.20964 h -8.63004 l 6.65832,9.97969 a 2.2090587,2.2090587 0 0 1 -0.61282,3.06558 2.1871411,2.1871411 0 0 1 -1.22191,0.37057"
         fill="#f8a2c3"
         id="path2"
         style="stroke-width:2.49816" />
    </g>
    <path
       d="m 285.10625,506.78944 c -0.55517,-0.001 -1.14317,0.06 -1.76842,0.19418 a 10.659102,10.659102 0 0 0 -4.95364,2.93879 10.658925,10.658925 0 0 0 0.17546,14.89429 l 15.07417,15.07434 15.07434,-15.07434 a 10.658925,10.658925 0 0 0 -4.77818,-17.83308 c -0.62542,-0.13416 -1.21325,-0.19541 -1.7686,-0.19418 -3.88567,0.009 -6.17131,3.06801 -8.52756,5.42461 -2.35608,-2.3566 -4.64172,-5.41596 -8.52757,-5.42461 z"
       fill="#ff634d"
       id="path1-3"
       style="stroke-width:1.06667" />
    <g
       clip-path="url(#clip0_25_844)"
       id="g2"
       transform="matrix(0.24977186,0,0,0.24977186,354.88535,490.76739)"
       style="stroke-width:4.00365">
      <path
         fill-rule="evenodd"
         clip-rule="evenodd"
         d="m 201.463,193.578 h -28.42 V 1.48145 h 28.42 z m -73.049,0 -15.417,-59.658 c -3.43,-13.274 -7.237,-29.339 -18.5442,-38.2382 -1.6585,-1.3199 -3.5432,-2.5266 -5.5786,-3.6579 -1.9978,-1.0936 -3.9955,-1.9987 -5.9932,-2.7152 -2.1109,-0.7542 -4.3348,-1.3198 -6.634,-1.6969 -2.1486,-0.3771 -4.4478,-0.5657 -6.9356,-0.5657 -11.2326,0 -21.4474,4.563 -28.7976,11.9542 -7.3879,7.3917 -11.9488,17.5727 -11.9488,28.8107 0,11.238 4.5609,21.457 11.9488,28.811 7.3879,7.391 17.565,11.954 28.7976,11.954 6.144,0 11.9488,-1.358 17.1127,-3.734 4.1086,-1.923 7.8779,-4.487 11.1195,-7.617 l 7.6134,29.829 c -2.186,1.32 -4.485,2.564 -6.8218,3.658 -8.8579,4.11 -18.7335,6.41 -29.0615,6.41 -19.1104,0 -36.4493,-7.768 -48.9635,-20.288 C 7.79606,164.277 0.03125,146.93 0.03125,127.811 c 0,-19.119 7.76481,-36.4659 20.27895,-48.9857 12.5142,-12.5198 29.8531,-20.2882 48.9635,-20.2882 3.8447,0 7.7271,0.3394 11.6095,1.0182 3.8447,0.6411 7.6517,1.6593 11.308,2.9414 3.6562,1.2822 7.124,2.8283 10.3278,4.6007 3.204,1.7724 6.37,3.8464 9.385,6.2222 9.386,7.3535 15.454,16.4417 19.865,26.284 3.995,8.9754 6.407,18.1764 8.744,27.2264 l 17.264,66.785 H 128.414 Z M 588.799,98.2461 c 0,4.0349 2.111,7.3159 6.332,9.8799 15.832,9.541 35.056,7.957 50.661,20.062 9.799,7.58 16.246,19.044 13.57,34.166 -1.659,9.389 -6.711,18.214 -14.438,23.87 -9.838,7.203 -22.013,10.785 -36.6,10.785 -13.004,0 -24.123,-2.715 -33.433,-8.183 -9.31,-5.43 -16.058,-13.01 -20.279,-22.664 l 24.5,-14.216 c 4.372,12.632 14.135,18.968 29.212,18.968 8.933,0 15.153,-1.773 18.771,-5.28 4.75,-4.638 4.976,-12.218 0.113,-16.932 -0.754,-0.716 -1.658,-1.433 -2.676,-2.149 -4.184,-2.828 -10.441,-5.204 -18.808,-7.278 -14.362,-3.545 -34.415,-9.729 -41.991,-23.456 -8.293,-15.009 -3.392,-35.6362 9.876,-46.3459 9.31,-7.3912 20.807,-11.0491 34.49,-11.0491 10.893,0 20.58,2.4135 29.099,7.2404 8.518,4.8269 15.039,11.5393 19.599,20.1373 l -23.971,13.4248 c -4.373,-9.9932 -12.628,-15.0087 -24.766,-15.0087 -5.616,0 -10.215,1.2445 -13.833,3.6957 -3.619,2.4888 -5.428,5.9205 -5.428,10.3326 z M 533.542,36.8537 c -3.506,3.5071 -7.727,5.2794 -12.628,5.2794 -4.901,0 -9.198,-1.7723 -12.892,-5.2794 -3.505,-3.6956 -5.277,-7.9946 -5.277,-12.8969 0,-4.9024 1.772,-9.1259 5.277,-12.633 3.507,-3.69558 7.804,-5.54338 12.892,-5.54338 5.089,0 9.385,1.8478 12.891,5.54338 3.505,3.5071 5.276,7.7306 5.276,12.633 -0.037,4.9023 -1.883,9.239 -5.539,12.8969 z m 1.583,156.7243 H 506.703 V 61.8933 h 28.422 z m -93.104,-67.426 49.228,67.426 h -32.906 l -32.642,-45.026 -32.907,45.026 h -33.17 l 49.491,-67.69 -46.852,-63.9947 h 32.906 l 30.267,41.5947 30.268,-41.5947 h 33.17 z m -82.887,13.839 c 0.716,-4.374 1.056,-8.334 1.056,-11.841 0,-19.307 -6.22,-35.749 -18.696,-49.2493 -12.477,-13.538 -28.27,-20.2882 -47.381,-20.2882 -20.543,0 -37.203,6.6748 -50.019,20.0242 -13.004,13.3495 -19.487,29.7533 -19.487,49.2493 0,20.025 6.596,36.617 19.751,49.778 13.344,13.01 30.645,19.496 51.866,19.496 16.698,0 30.682,-4.073 41.953,-12.18 l -7.726,-30.206 c -7.728,10.898 -19.037,16.328 -33.963,16.328 -11.044,0 -20.316,-2.715 -27.78,-8.183 -7.463,-5.43 -12.25,-13.085 -14.361,-22.928 z M 254.083,116.8 c 1.922,-9.994 6.409,-17.9128 13.42,-23.7202 7.01,-5.8074 15.793,-8.6734 26.346,-8.6734 9.65,0 17.867,2.8283 24.615,8.4094 6.747,5.6188 11.119,13.6132 13.041,23.9842 z"
         fill="#ffffff"
         id="path1-6"
         style="stroke-width:4.00365" />
    </g>
    <path
       d="m 399.22685,552.11136 c 0,-0.69112 0.1414,-1.30306 0.4246,-1.83582 0.2912,-0.53277 0.6826,-0.94489 1.1739,-1.23638 0.4996,-0.29972 1.0491,-0.44958 1.6485,-0.44958 0.541,0 1.0116,0.10815 1.4112,0.3247 0.4079,0.20806 0.7326,0.47032 0.9741,0.78678 v -0.99909 h 1.4362 v 6.88122 h -1.4362 v -1.02407 c -0.2415,0.32471 -0.5704,0.59521 -0.9866,0.81176 -0.4163,0.21655 -0.8909,0.32471 -1.4237,0.32471 -0.5912,0 -1.1324,-0.14987 -1.6235,-0.4496 -0.4913,-0.30796 -0.8827,-0.73257 -1.1739,-1.27383 -0.2832,-0.5495 -0.4246,-1.16968 -0.4246,-1.8608 z m 5.6323,0.025 c 0,-0.47457 -0.1,-0.88669 -0.2997,-1.23637 -0.1916,-0.34968 -0.4456,-0.61619 -0.7618,-0.79927 -0.3165,-0.18308 -0.6579,-0.27475 -1.0241,-0.27475 -0.3664,0 -0.7078,0.0917 -1.024,0.27475 -0.3165,0.17484 -0.5745,0.4371 -0.7743,0.78678 -0.1916,0.34144 -0.2873,0.74931 -0.2873,1.22388 0,0.47457 0.096,0.89094 0.2873,1.24886 0.1998,0.35793 0.4578,0.63268 0.7743,0.82425 0.3247,0.18308 0.6659,0.27475 1.024,0.27475 0.3662,0 0.7076,-0.0917 1.0241,-0.27475 0.3162,-0.18308 0.5702,-0.44959 0.7618,-0.79927 0.1998,-0.35792 0.2997,-0.77429 0.2997,-1.24886 z m 7.974,-2.42279 c 0.2413,-0.31646 0.5702,-0.58272 0.9866,-0.79927 0.4161,-0.21655 0.8867,-0.3247 1.4112,-0.3247 0.5995,0 1.1447,0.14986 1.636,0.44959 0.4996,0.29148 0.8907,0.70361 1.1739,1.23637 0.283,0.53276 0.4247,1.1447 0.4247,1.83582 0,0.69112 -0.1417,1.3113 -0.4247,1.8608 -0.2832,0.54126 -0.6743,0.96587 -1.1739,1.27384 -0.4913,0.29973 -1.0365,0.44959 -1.636,0.44959 -0.5245,0 -0.9908,-0.10416 -1.3987,-0.31221 -0.4081,-0.21656 -0.7411,-0.48282 -0.9991,-0.79928 v 4.2711 h -1.4237 v -10.15325 h 1.4237 z m 4.1837,2.39781 c 0,-0.47457 -0.1,-0.88244 -0.2997,-1.22388 -0.1916,-0.34968 -0.4496,-0.61194 -0.7743,-0.78678 -0.3165,-0.18308 -0.6579,-0.27475 -1.0241,-0.27475 -0.3582,0 -0.6994,0.0917 -1.0241,0.27475 -0.3164,0.18308 -0.5744,0.44959 -0.7743,0.79927 -0.1915,0.34968 -0.2872,0.7618 -0.2872,1.23637 0,0.47457 0.096,0.89094 0.2872,1.24886 0.1999,0.34968 0.4579,0.61619 0.7743,0.79927 0.3247,0.18308 0.6659,0.27475 1.0241,0.27475 0.3662,0 0.7076,-0.0917 1.0241,-0.27475 0.3247,-0.19157 0.5827,-0.46632 0.7743,-0.82425 0.1998,-0.35792 0.2997,-0.77429 0.2997,-1.24886 z m 2.3818,0 c 0,-0.69112 0.1416,-1.30306 0.4246,-1.83582 0.2915,-0.53276 0.6829,-0.94489 1.1739,-1.23637 0.4996,-0.29973 1.0491,-0.44959 1.6485,-0.44959 0.5413,0 1.0116,0.10815 1.4113,0.3247 0.4081,0.20806 0.7328,0.47033 0.9741,0.78679 v -0.9991 h 1.4362 v 6.88122 h -1.4362 v -1.02406 c -0.2413,0.3247 -0.5703,0.5952 -0.9866,0.81176 -0.4162,0.21655 -0.8907,0.3247 -1.4237,0.3247 -0.591,0 -1.1323,-0.14986 -1.6236,-0.44959 -0.491,-0.30797 -0.8824,-0.73258 -1.1739,-1.27384 -0.283,-0.5495 -0.4246,-1.16968 -0.4246,-1.8608 z m 5.6324,0.025 c 0,-0.47456 -0.1,-0.88669 -0.2998,-1.23637 -0.1913,-0.34968 -0.4453,-0.61618 -0.7618,-0.79927 -0.3162,-0.18308 -0.6576,-0.27475 -1.024,-0.27475 -0.3662,0 -0.7076,0.0917 -1.0241,0.27475 -0.3162,0.17484 -0.5745,0.43711 -0.7743,0.78678 -0.1913,0.34144 -0.2872,0.74932 -0.2872,1.22389 0,0.47456 0.096,0.89093 0.2872,1.24886 0.1998,0.35792 0.4581,0.63267 0.7743,0.82424 0.3247,0.18309 0.6661,0.27475 1.0241,0.27475 0.3664,0 0.7078,-0.0917 1.024,-0.27475 0.3165,-0.18308 0.5705,-0.44959 0.7618,-0.79926 0.1999,-0.35793 0.2998,-0.7743 0.2998,-1.24887 z m 4.7299,-2.43527 c 0.2083,-0.34968 0.4831,-0.62018 0.8242,-0.81176 0.3497,-0.19982 0.7618,-0.29973 1.2364,-0.29973 v 1.47366 h -0.3622 c -0.5577,0 -0.9823,0.14162 -1.2738,0.42461 -0.283,0.28299 -0.4246,0.77429 -0.4246,1.47366 v 3.62168 h -1.4237 v -6.88122 h 1.4237 z m 5.0304,0.16235 v 3.80902 c 0,0.25801 0.058,0.44534 0.1748,0.56199 0.1249,0.10815 0.333,0.16235 0.6245,0.16235 h 0.8742 v 1.18641 h -1.124 c -0.6412,0 -1.1325,-0.14986 -1.4737,-0.44958 -0.3414,-0.29973 -0.512,-0.78679 -0.512,-1.46117 v -3.80902 h -0.8117 v -1.16144 h 0.8117 v -1.71094 h 1.4362 v 1.71094 h 1.6735 v 1.16144 z m 9.2143,5.83217 c -0.6494,0 -1.2363,-0.14561 -1.7609,-0.4371 -0.5245,-0.29972 -0.9366,-0.71609 -1.2363,-1.24886 -0.2998,-0.54125 -0.4496,-1.16568 -0.4496,-1.87329 0,-0.69936 0.1541,-1.31954 0.4621,-1.8608 0.3082,-0.54125 0.7286,-0.95737 1.2613,-1.24885 0.533,-0.29149 1.1282,-0.43711 1.7859,-0.43711 0.6579,0 1.2531,0.14562 1.7859,0.43711 0.5329,0.29148 0.9533,0.7076 1.2613,1.24885 0.3082,0.54126 0.4621,1.16144 0.4621,1.8608 0,0.69936 -0.1581,1.31955 -0.4746,1.8608 -0.3162,0.54126 -0.7493,0.96163 -1.2988,1.26135 -0.541,0.29149 -1.1405,0.4371 -1.7984,0.4371 z m 0,-1.23637 c 0.3665,0 0.7079,-0.0874 1.0241,-0.26226 0.3247,-0.17484 0.587,-0.4371 0.7868,-0.78678 0.1998,-0.34968 0.2997,-0.77429 0.2997,-1.27384 0,-0.49954 -0.096,-0.91991 -0.2872,-1.26134 -0.1914,-0.34968 -0.4454,-0.61194 -0.7618,-0.78679 -0.3163,-0.17484 -0.6577,-0.26226 -1.0241,-0.26226 -0.3662,0 -0.7076,0.0874 -1.0241,0.26226 -0.3079,0.17485 -0.5535,0.43711 -0.7368,0.78679 -0.1831,0.34143 -0.2748,0.7618 -0.2748,1.26134 0,0.74108 0.1874,1.31555 0.5621,1.72343 0.3831,0.39963 0.8617,0.59945 1.4361,0.59945 z m 7.8641,-4.5958 h -1.2738 v 5.71977 h -1.4362 v -5.71977 h -0.8118 v -1.16144 h 0.8118 v -0.48706 c 0,-0.79102 0.2083,-1.3655 0.6244,-1.72342 0.4246,-0.36642 1.0865,-0.5495 1.9857,-0.5495 v 1.18642 c -0.4329,0 -0.7368,0.0832 -0.9117,0.24977 -0.1748,0.15811 -0.2622,0.4371 -0.2622,0.83673 v 0.48706 h 1.2738 z m 7.3658,5.80719 c -0.5827,0 -1.1073,-0.0999 -1.5736,-0.29972 -0.4663,-0.20806 -0.8325,-0.49954 -1.099,-0.8742 -0.2665,-0.37466 -0.3996,-0.81176 -0.3996,-1.3113 h 1.5236 c 0.033,0.37465 0.1791,0.68262 0.4371,0.92415 0.2665,0.24153 0.6369,0.36217 1.1115,0.36217 0.4913,0 0.8742,-0.11664 1.1489,-0.34968 0.2748,-0.24153 0.4121,-0.5495 0.4121,-0.92415 0,-0.29149 -0.087,-0.52877 -0.2622,-0.71186 -0.1666,-0.18308 -0.3789,-0.3247 -0.6369,-0.42461 -0.2498,-0.0999 -0.5995,-0.20806 -1.0491,-0.3247 -0.5662,-0.14986 -1.0283,-0.29973 -1.3862,-0.44959 -0.3497,-0.15811 -0.6494,-0.39964 -0.8992,-0.72434 -0.2498,-0.3247 -0.3746,-0.75756 -0.3746,-1.29881 0,-0.49955 0.1248,-0.93665 0.3746,-1.31131 0.2498,-0.37465 0.5995,-0.66189 1.0491,-0.86171 0.4495,-0.19982 0.9698,-0.29973 1.561,-0.29973 0.841,0 1.5279,0.21231 2.0607,0.63693 0.5412,0.41636 0.8409,0.99084 0.8991,1.72342 h -1.5735 c -0.025,-0.31646 -0.1749,-0.58696 -0.4496,-0.81176 -0.2748,-0.22479 -0.6369,-0.33719 -1.0865,-0.33719 -0.4079,0 -0.7411,0.10415 -0.9991,0.31221 -0.258,0.20807 -0.3872,0.50779 -0.3872,0.89918 0,0.26651 0.079,0.48706 0.2373,0.6619 0.1666,0.1666 0.3747,0.29973 0.6245,0.39963 0.2497,0.0999 0.5912,0.20806 1.024,0.32471 0.5745,0.1581 1.0408,0.31646 1.3987,0.47456 0.3665,0.15811 0.6744,0.40388 0.9242,0.73683 0.258,0.3247 0.3871,0.7618 0.3871,1.3113 0,0.44135 -0.1206,0.85747 -0.3621,1.24886 -0.2331,0.39139 -0.5788,0.70761 -1.0366,0.94913 -0.4496,0.23304 -0.9823,0.34968 -1.5985,0.34968 z m 5.4016,-7.88031 c -0.2583,0 -0.4746,-0.0874 -0.6495,-0.26226 -0.1748,-0.17483 -0.2622,-0.39139 -0.2622,-0.6494 0,-0.25802 0.087,-0.47457 0.2622,-0.64941 0.1749,-0.17484 0.3912,-0.26226 0.6495,-0.26226 0.2497,0 0.462,0.0874 0.6369,0.26226 0.1748,0.17484 0.2622,0.39139 0.2622,0.64941 0,0.25801 -0.087,0.47457 -0.2622,0.6494 -0.1749,0.17484 -0.3872,0.26226 -0.6369,0.26226 z m 0.6993,0.91167 v 6.88122 h -1.4237 v -6.88122 z m 10.199,-0.11239 c 0.5412,0 1.024,0.11239 1.4486,0.33719 0.4331,0.22479 0.7703,0.55774 1.0116,0.99909 0.2497,0.44134 0.3746,0.9741 0.3746,1.59854 v 4.05879 h -1.4112 v -3.84649 c 0,-0.61619 -0.1538,-1.08651 -0.4621,-1.41121 -0.3079,-0.33295 -0.7283,-0.49954 -1.2613,-0.49954 -0.5327,0 -0.9574,0.16659 -1.2738,0.49954 -0.308,0.3247 -0.4621,0.79502 -0.4621,1.41121 v 3.84649 h -1.4112 v -3.84649 c 0,-0.61619 -0.1539,-1.08651 -0.4621,-1.41121 -0.308,-0.33295 -0.7283,-0.49954 -1.2613,-0.49954 -0.5328,0 -0.9574,0.16659 -1.2739,0.49954 -0.3079,0.3247 -0.4621,0.79502 -0.4621,1.41121 v 3.84649 h -1.4236 v -6.88122 h 1.4236 v 0.78678 c 0.2333,-0.28299 0.5288,-0.50379 0.8867,-0.66189 0.3582,-0.15811 0.7411,-0.23728 1.149,-0.23728 0.5495,0 1.0408,0.11664 1.4737,0.34968 0.433,0.23303 0.766,0.57023 0.999,1.01157 0.2083,-0.41637 0.533,-0.74507 0.9741,-0.9866 0.4414,-0.24977 0.9159,-0.37465 1.4238,-0.37465 z m 6.0704,1.12397 c 0.2413,-0.31646 0.5702,-0.58272 0.9866,-0.79927 0.4161,-0.21655 0.8867,-0.3247 1.4112,-0.3247 0.5995,0 1.1447,0.14986 1.636,0.44958 0.4996,0.29149 0.8907,0.70361 1.1739,1.23638 0.283,0.53276 0.4247,1.1447 0.4247,1.83582 0,0.69112 -0.1417,1.3113 -0.4247,1.8608 -0.2832,0.54126 -0.6743,0.96587 -1.1739,1.27383 -0.4913,0.29973 -1.0365,0.4496 -1.636,0.4496 -0.5245,0 -0.9908,-0.10416 -1.3987,-0.31222 -0.4082,-0.21655 -0.7411,-0.48281 -0.9991,-0.79927 v 4.2711 h -1.4237 v -10.15327 h 1.4237 z m 4.1837,2.39781 c 0,-0.47457 -0.1,-0.88245 -0.2997,-1.22388 -0.1916,-0.34968 -0.4497,-0.61194 -0.7743,-0.78678 -0.3165,-0.18309 -0.658,-0.27475 -1.0241,-0.27475 -0.3582,0 -0.6994,0.0917 -1.0241,0.27475 -0.3165,0.18308 -0.5744,0.44958 -0.7743,0.79926 -0.1916,0.34969 -0.2872,0.76181 -0.2872,1.23637 0,0.47457 0.096,0.89094 0.2872,1.24887 0.1999,0.34967 0.4578,0.61618 0.7743,0.79927 0.3247,0.18308 0.6659,0.27475 1.0241,0.27475 0.3661,0 0.7076,-0.0917 1.0241,-0.27475 0.3246,-0.19158 0.5827,-0.46633 0.7743,-0.82425 0.1997,-0.35792 0.2997,-0.7743 0.2997,-1.24886 z m 4.2801,-5.76973 v 9.24156 h -1.4237 v -9.24156 z m 4.854,9.35396 c -0.6494,0 -1.2363,-0.14562 -1.7609,-0.43711 -0.5245,-0.29972 -0.9366,-0.71609 -1.2363,-1.24886 -0.2998,-0.54125 -0.4496,-1.16568 -0.4496,-1.87329 0,-0.69935 0.1541,-1.31954 0.4621,-1.86079 0.3079,-0.54126 0.7285,-0.95738 1.2613,-1.24886 0.5328,-0.29149 1.1282,-0.4371 1.7859,-0.4371 0.6576,0 1.2531,0.14561 1.7858,0.4371 0.5328,0.29148 0.9534,0.7076 1.2614,1.24886 0.308,0.54125 0.4621,1.16144 0.4621,1.86079 0,0.69937 -0.1582,1.31955 -0.4746,1.86081 -0.3165,0.54125 -0.7493,0.96162 -1.2988,1.26134 -0.5413,0.29149 -1.1407,0.43711 -1.7984,0.43711 z m 0,-1.23637 c 0.3664,0 0.7076,-0.0874 1.0241,-0.26227 0.3247,-0.17484 0.5869,-0.4371 0.7868,-0.78678 0.1998,-0.34968 0.2997,-0.77429 0.2997,-1.27384 0,-0.49954 -0.096,-0.9199 -0.2872,-1.26134 -0.1916,-0.34968 -0.4454,-0.61194 -0.7618,-0.78678 -0.3165,-0.17484 -0.6577,-0.26226 -1.0241,-0.26226 -0.3664,0 -0.7076,0.0874 -1.0241,0.26226 -0.3079,0.17484 -0.5537,0.4371 -0.7368,0.78678 -0.1831,0.34144 -0.2747,0.7618 -0.2747,1.26134 0,0.74108 0.1873,1.31556 0.5619,1.72343 0.3829,0.39964 0.8618,0.59946 1.4362,0.59946 z m 11.1736,-5.75725 -4.2212,10.11576 h -1.4736 l 1.3987,-3.34694 -2.71,-6.76882 h 1.586 l 1.9357,5.24521 2.0107,-5.24521 z m 7.381,3.27201 c 0,0.25802 -0.016,0.4913 -0.05,0.69937 h -5.2577 c 0.042,0.5495 0.2458,0.99084 0.6119,1.32379 0.3664,0.33294 0.816,0.49954 1.3488,0.49954 0.7661,0 1.3073,-0.32046 1.6235,-0.96162 h 1.5361 c -0.2081,0.63267 -0.5869,1.1532 -1.1365,1.56107 -0.541,0.39964 -1.2153,0.59946 -2.0231,0.59946 -0.6576,0 -1.2489,-0.14562 -1.7734,-0.43711 -0.516,-0.29972 -0.9241,-0.71609 -1.2239,-1.24886 -0.2912,-0.54125 -0.4371,-1.16568 -0.4371,-1.87329 0,-0.7076 0.1417,-1.32803 0.4246,-1.86079 0.2915,-0.54126 0.6954,-0.95738 1.2114,-1.24886 0.5246,-0.29149 1.124,-0.4371 1.7984,-0.4371 0.6494,0 1.2281,0.14162 1.7359,0.42461 0.508,0.28299 0.9035,0.68262 1.1864,1.1989 0.2833,0.50779 0.4247,1.09475 0.4247,1.76089 z m -1.4861,-0.44958 c -0.01,-0.52453 -0.1956,-0.94489 -0.5621,-1.26135 -0.3661,-0.31646 -0.82,-0.47457 -1.3612,-0.47457 -0.491,0 -0.9117,0.15811 -1.2614,0.47457 -0.3496,0.30796 -0.5577,0.72858 -0.6244,1.26135 z m 4.311,-1.82334 c 0.208,-0.34968 0.4828,-0.62018 0.8243,-0.81176 0.3496,-0.19981 0.7618,-0.29972 1.2363,-0.29972 v 1.47365 h -0.3621 c -0.5581,0 -0.9826,0.14162 -1.2739,0.42461 -0.2832,0.28299 -0.4246,0.77429 -0.4246,1.47366 v 3.62169 h -1.4237 v -6.88122 h 1.4237 z"
       fill="#ffffff"
       id="path2-7"
       style="stroke-width:1" />
    <text
       xml:space="preserve"
       style="font-weight:900;font-size:125.077px;line-height:1;font-family:Inter;-inkscape-font-specification:'Inter, Heavy';fill:#18181b;fill-opacity:1;stroke:#efefef;stroke-width:2"
       x="69.37188"
       y="152.52591"
       id="text1"><tspan
         sodipodi:role="line"
         id="tspan1"
         x="69.37188"
         y="152.52591"
         style="line-height:1;fill:#e4e4e7;fill-opacity:1;stroke:none">Play</tspan><tspan
         sodipodi:role="line"
         x="69.37188"
         y="277.60291"
         id="tspan2"
         style="line-height:1;fill:#e4e4e7;fill-opacity:1;stroke:none">Random</tspan><tspan
         sodipodi:role="line"
         x="69.37188"
         y="402.67993"
         id="tspan3"
         style="line-height:1;fill:#e4e4e7;fill-opacity:1;stroke:none">Questions</tspan></text>
    <path
       id="path5"
       style="fill:#cba6f7;fill-opacity:1;stroke:none;stroke-width:2"
       d="m 1189.1055,220.75391 a 409.44269,409.44269 0 0 0 -145.7207,31.64453 L 1200,630 V 221.03125 a 409.44269,409.44269 0 0 0 -10.8945,-0.27734 z m -158.2539,36.8457 a 409.44269,409.44269 0 0 0 -13.0098,6.14258 409.44269,409.44269 0 0 1 13.0098,-6.14258 z m -37.02346,19.19922 a 409.44269,409.44269 0 0 0 -12.1133,7.19922 409.44269,409.44269 0 0 1 12.1133,-7.19922 z m -35.2949,23.15429 a 409.44269,409.44269 0 0 0 -7.873,5.41797 l 0.166,0.2168 a 409.44269,409.44269 0 0 1 7.707,-5.63477 z" />
    <path
       id="path6"
       style="fill:#f38ba8;fill-opacity:1;stroke:none;stroke-width:2"
       d="M 1043.1367,251.8008 A 409.44269,409.44269 0 0 0 822.05473,473.65625 L 1200,629.99999 Z M 816.60355,487.78906 a 409.44269,409.44269 0 0 0 -6.69531,18.95118 409.44269,409.44269 0 0 1 6.69531,-18.95118 z m -12.29298,38.93358 a 409.44269,409.44269 0 0 0 -4.71676,19.70901 409.44269,409.44269 0 0 1 4.71676,-19.70901 z m -8.36131,39.9844 a 409.44269,409.44269 0 0 0 -1.80666,10.05467 l 0.48246,0.0625 a 409.44269,409.44269 0 0 1 1.3242,-10.1172 z" />
    <path
       id="path7"
       style="fill:#eba0ac;fill-opacity:1;stroke:none;stroke-width:2"
       d="M 821.65434,473.49023 A 409.44269,409.44269 0 0 0 790.91606,630 H 1200 Z" />
  </g>
</svg>
