<svg xmlns="http://www.w3.org/2000/svg" height="557.912" width="1364.3"><path d="M117.038 197.903s-12.351 12.35-34.994 12.35c-28.23 0-52.636-19.113-52.636-48.813V93.218H0V64.4h14.704c9.998 0 16.763-6.764 16.763-17.35V17.644h35.58v44.11h37.054v31.464H67.047v65.87c0 9.997 8.236 17.642 18.82 17.642 8.822 0 17.057-4.999 17.057-4.999l14.114 26.172M269.354 129.093v79.69h-39.406v-70.868c0-14.41 2.353-43.521-24.113-43.521-12.938 0-37.933 6.762-37.933 45.285v69.105h-39.406V0h37.346v77.044h5c7.06-7.353 20.587-16.761 42.345-16.761 37.933 0 56.167 28.23 56.167 68.81M324.995 116.741h66.165c-4.414-17.348-16.468-24.406-31.171-24.406-16.174 0-29.111 9.116-34.994 24.406zm104.98 29.702H322.643c4.412 22.347 22.642 30.58 38.522 30.58 19.996 0 28.524-12.35 28.524-12.35h37.051c-11.175 29.407-37.934 45.58-66.751 45.58-39.7 0-74.396-30.288-74.396-76.16 0-45.58 34.403-73.81 73.22-73.81 37.64 0 75.868 26.17 71.162 86.16M625.508 197.903s-12.352 12.35-34.993 12.35c-28.229 0-52.637-19.113-52.637-48.813V93.218h-29.405V64.4h14.7c10 0 16.765-6.764 16.765-17.35V17.644h35.58v44.11h37.052v31.464h-37.053v65.87c0 9.997 8.235 17.642 18.82 17.642 8.822 0 17.057-4.999 17.057-4.999l14.114 26.172M737.245 135.269c0-24.408-13.235-38.816-32.347-38.816-17.942 0-35.877 12.938-35.877 38.816 0 25.876 17.935 38.815 35.877 38.815 19.112 0 32.347-14.409 32.347-38.815zm36.756-73.515v147.03h-28.818l-4.115-14.115h-4.413c-9.116 9.996-21.466 15.583-37.347 15.583-37.343 0-68.514-30.58-68.514-74.983 0-44.404 31.171-74.986 68.514-74.986 15.295 0 28.526 5.293 37.937 15.88v-14.41h36.756M843.766 0v208.784h-38.228V0h38.228M905.808 116.741h66.165c-4.413-17.348-16.468-24.406-31.17-24.406-16.175 0-29.112 9.116-34.995 24.406zm104.98 29.702H903.457c4.412 22.347 22.642 30.58 38.522 30.58 19.996 0 28.525-12.35 28.525-12.35h37.05c-11.174 29.407-37.934 45.58-66.75 45.58-39.7 0-74.398-30.288-74.398-76.16 0-45.58 34.404-73.81 73.22-73.81 37.64 0 75.87 26.17 71.164 86.16M1174.283 129.093v79.69h-39.11v-70.868c0-5 3.53-42.051-24.703-43.521-13.821-.883-38.521 6.762-38.521 45.285v69.105h-38.818V61.754h29.995l4.999 17.936h4.999c6.175-7.351 19.996-19.407 44.698-19.407 37.933 0 56.46 28.23 56.46 68.81M1296.6 197.903s-12.35 12.35-34.987 12.35c-28.232 0-52.64-19.113-52.64-48.813V93.218h-29.406V64.4h14.702c9.998 0 16.763-6.764 16.763-17.35V17.644h35.58v44.11h37.05v31.464h-37.05v65.87c0 9.997 8.238 17.642 18.825 17.642 8.813 0 17.05-4.999 17.05-4.999l14.113 26.172M74.4 491.82C33.526 491.82 0 460.355 0 417.13c0-43.817 34.7-75.28 75.87-75.28 33.523 0 62.047 20.879 70.279 55.284h-39.992c-6.176-12.058-17.053-19.703-31.171-19.703-20.583 0-37.05 16.468-37.05 39.404 0 22.936 16.467 39.405 37.05 39.405 13.234 0 23.525-6.762 29.995-17.643h40.285C135.86 473.587 105.57 491.82 74.4 491.82M274.353 416.834c0-22.936-13.528-40.874-35.877-40.874-22.348 0-37.346 17.938-37.346 40.874 0 22.936 14.998 40.876 37.346 40.876 22.349 0 35.877-17.94 35.877-40.876zm-111.743.295c0-47.05 36.464-75.28 75.866-75.28 39.7 0 74.396 28.525 74.396 74.691 0 46.756-35.873 75.28-75.572 75.28-39.992 0-74.69-28.524-74.69-74.691M551.423 410.659v79.691h-39.11v-70.869c0-20.29 2.06-45.873-24.995-43.521-7.055.589-26.464 3.824-26.464 45.286v69.104h-38.818v-70.869c0-20.29 2.06-45.873-24.995-43.521-7.055.589-26.465 3.824-26.465 45.286v69.104H331.76V343.32h29.995l4.413 15.879h4.705c5.586-7.353 17.347-17.055 35.58-17.35 16.467-.293 30.58 7.352 40.286 20.291h4.412c7.349-9.116 20.877-20.291 44.695-20.584 38.23-.296 55.577 28.229 55.577 69.103M685.212 416.834c0-25.876-17.937-38.815-35.877-38.815-19.113 0-32.344 14.409-32.344 38.815 0 24.409 13.232 38.817 32.344 38.817 17.94 0 35.877-12.939 35.877-38.817zm38.23 0c0 44.405-31.172 74.986-68.518 74.986-15.29 0-28.524-5.294-37.933-15.879v81.971h-36.76V343.32h28.819l4.119 14.114h4.41c9.113-9.998 21.465-15.585 37.345-15.585 37.346 0 68.517 30.582 68.517 74.985M848.485 416.834c0-24.406-13.234-38.815-32.346-38.815-17.94 0-35.878 12.939-35.878 38.815 0 25.878 17.938 38.817 35.878 38.817 19.112 0 32.346-14.408 32.346-38.817zm36.756-73.514v147.03h-28.816l-4.116-14.115h-4.414c-9.115 9.997-21.465 15.585-37.346 15.585-37.343 0-68.514-30.581-68.514-74.986 0-44.403 31.171-74.985 68.514-74.985 15.295 0 28.526 5.295 37.936 15.88V343.32h36.756M1057.634 410.659v79.691h-39.109v-70.869c0-4.998 3.53-42.051-24.701-43.521-13.821-.882-38.524 6.763-38.524 45.286v69.104h-38.815V343.32h29.994l5 17.938h4.999c6.175-7.353 19.996-19.41 44.697-19.41 37.934 0 56.459 28.23 56.459 68.81M1221.195 343.32v132.327c0 39.698-20.289 82.136-70.574 82.136-47.051 0-72.632-30.875-72.632-54.107h36.756s5.59 19.701 34.701 19.701c24.702 0 34.993-21.264 34.993-41.85v-6.174c-6.469 7.352-18.82 16.467-40.875 16.467-38.52 0-62.637-27.935-62.637-68.81l-.292-79.69h38.23v70.869c0 19.994 7.055 43.52 31.464 43.52 12.643 0 33.52-6.175 33.52-45.285V343.32h37.346" fill="#fff"/><path d="M1343.438 403.332a7.657 7.657 0 0 1-6.388-3.41l-21.275-31.905-21.288 31.905a7.662 7.662 0 0 1-10.625 2.124c-3.512-2.349-4.462-7.107-2.125-10.629l23.088-34.605H1274.9a7.659 7.659 0 0 1-7.662-7.662 7.657 7.657 0 0 1 7.662-7.661h31.738c.137-.112.287-.214.437-.318a7.414 7.414 0 0 1 1.038-.577V312.11a7.658 7.658 0 0 1 7.662-7.662 7.666 7.666 0 0 1 7.662 7.662v28.483c.35.162.688.356 1.025.577.15.104.3.206.438.318h31.737a7.657 7.657 0 0 1 7.663 7.661 7.659 7.659 0 0 1-7.663 7.662h-29.925l23.088 34.605a7.66 7.66 0 0 1-2.125 10.63 7.584 7.584 0 0 1-4.237 1.285" fill="#f8a2c3"/></svg>